<svg width="128" height="128" viewBox="0 0 128 128" fill="none" xmlns="http://www.w3.org/2000/svg" role="img" aria-label="nekarc icon">
  <defs>
    <linearGradient id="grad" x1="0" y1="0" x2="1" y2="1">
      <stop offset="0" stop-color="#3b82f6"/>
      <stop offset="1" stop-color="#22d3ee"/>
    </linearGradient>
  </defs>
  <rect x="8" y="8" width="112" height="112" rx="30" fill="#0b1120" stroke="url(#grad)" stroke-width="2.5"/>
  <g stroke="url(#grad)" stroke-width="2.4" stroke-opacity="0.6">
    <line x1="64" y1="100" x2="42" y2="72"/>
    <line x1="64" y1="100" x2="86" y2="72"/>
    <line x1="42" y1="72" x2="28" y2="46"/>
    <line x1="42" y1="72" x2="48" y2="38"/>
    <line x1="42" y1="72" x2="64" y2="34"/>
    <line x1="86" y1="72" x2="64" y2="34"/>
    <line x1="86" y1="72" x2="80" y2="38"/>
    <line x1="86" y1="72" x2="100" y2="46"/>
  </g>
  <g fill="url(#grad)">
    <circle cx="64" cy="100" r="8"/>
    <circle cx="42" cy="72" r="6"/>
    <circle cx="86" cy="72" r="6"/>
    <circle cx="28" cy="46" r="5"/>
    <circle cx="48" cy="38" r="5"/>
    <circle cx="64" cy="34" r="5"/>
    <circle cx="80" cy="38" r="5"/>
    <circle cx="100" cy="46" r="5"/>
  </g>
</svg>
